<svg xmlns="http://www.w3.org/2000/svg" viewBox="0 0 96 96" role="img" aria-labelledby="title desc">
  <title id="title">KDMP Logo</title>
  <desc id="desc">Local logo for KDMP Sindangjaya Cipanas</desc>
  <defs>
    <linearGradient id="bg" x1="0" x2="1" y1="0" y2="1">
      <stop offset="0%" stop-color="#b91c1c"/>
      <stop offset="100%" stop-color="#7f1d1d"/>
    </linearGradient>
  </defs>
  <rect width="96" height="96" rx="22" fill="url(#bg)"/>
  <path d="M18 20h60v8H18zm0 48h60v8H18z" fill="#fef2f2" opacity=".95"/>
  <path d="M24 32h48v32H24z" fill="#fff7ed"/>
  <path d="M30 38h9l9 9-9 9h-9l9-9zm19-1h8c8 0 13 4 13 11s-5 11-13 11h-8zm8 16c3 0 5-2 5-5s-2-5-5-5h-1v10z" fill="#991b1b"/>
</svg>
